s<svg xmlns="http://www.w3.org/2000/svg" viewBox="0 0 231.31 60.02"><defs><style>.cls-1{fill:#231f20;}.cls-2{fill:#68c9d1;}</style></defs><title>LAPIS Basic1</title><g id="Layer_1" data-name="Layer 1"><path class="cls-1" d="M178,115.81c0-1.86.89-2.75,2.68-2.75a2.42,2.42,0,0,1,2.76,2.75v47.06h23.9c1.86,0,2.76.89,2.76,2.68a2.42,2.42,0,0,1-2.76,2.75H181.66c-2.46,0-3.65-1.41-3.65-4.25Z" transform="translate(-178.01 -109.19)"/><path class="cls-1" d="M258.15,157H232.53l-3.05,8.49c-.67,1.86-1.79,2.83-3.35,2.83a2.32,2.32,0,0,1-2.38-2.61,4.81,4.81,0,0,1,.3-1.49l16.83-47.66c.82-2.23,2.31-3.35,4.32-3.35s3.5,1.12,4.32,3.35l17.42,47.66a4.12,4.12,0,0,1,.3,1.56,2.35,2.35,0,0,1-2.53,2.53,2.6,2.6,0,0,1-2.68-1.79Zm-24.05-5.66h22L245.27,120.8Z" transform="translate(-178.01 -109.19)"/><path class="cls-1" d="M281.69,116.11c0-2,1-3,3.05-3h15.79c10.2,0,18.25,6.85,18.25,16.9,0,9.46-8.12,16.61-17.8,16.61H287.13v18.91c0,1.86-.89,2.75-2.68,2.75a2.42,2.42,0,0,1-2.76-2.75Zm5.44,2.46v22.64h13.55c6.85,0,12.44-4.32,12.44-11.24,0-7.15-5.66-11.39-13.63-11.39Z" transform="translate(-178.01 -109.19)"/><path class="cls-2" d="M344.05,126.8c0-1.47.89-2.18,2.68-2.18s2.76.71,2.76,2.18v39.33c0,1.47-.89,2.18-2.76,2.18s-2.68-.71-2.68-2.18Z" transform="translate(-178.01 -109.19)"/><path class="cls-1" d="M392.2,117.75a9.49,9.49,0,0,0-9.46,9.31c0,4.77,6.4,7.52,12.73,10.95,6.7,3.65,13.85,7.3,13.85,15,0,10.65-8,16.16-18.24,16.16a23.22,23.22,0,0,1-12.81-3.72,3.92,3.92,0,0,1-2-3.28,2.22,2.22,0,0,1,2.53-2.53,4.77,4.77,0,0,1,2.61.89,19.76,19.76,0,0,0,9.9,2.83c6.48,0,12-2.83,12-10,0-4.47-5.36-7.3-11.17-10.35-7.3-3.8-15.49-8-15.49-15.71,0-9.76,7.45-15.41,16.75-15.41a26.76,26.76,0,0,1,12.66,3.43,4,4,0,0,1,2.09,3.42,2.76,2.76,0,0,1-2.61,2.9,6.07,6.07,0,0,1-2.83-1.34A21.84,21.84,0,0,0,392.2,117.75Z" transform="translate(-178.01 -109.19)"/></g><g id="Layer_2" data-name="Layer 2"><path class="cls-2" d="M334.2,142.24a2.74,2.74,0,1,0,3.64-4.09l0,0a13.44,13.44,0,1,1,17.81,0l0,0a2.79,2.79,0,0,0-.95,2,2.76,2.76,0,0,0,4.59,2.06l0,0a18.92,18.92,0,1,0-25.09,0Z" transform="translate(-178.01 -109.19)"/></g></svg>